<svg version="1" xmlns="http://www.w3.org/2000/svg" width="346.667" height="346.667" viewBox="0 0 260.000000 260.000000"><path d="M98 15c-30 4-54.7 15.5-64.9 30.4-3.9 5.6-6.8 14.7-7 21.9-.5 16.2 8 27.5 23.9 31.5 5.7 1.4 18.1 1.3 23.8-.2C89.1 94.4 96 84.1 96.1 65c.1-9-.4-13-3-24.2-2.7-11.5-1.9-14.8 4.6-17.9 3.5-1.7 6.8-2.3 12.7-2.5 13.6-.4 19.6 3 22.1 12.5 2.1 8 1.4 55.7-.9 62.5-5.4 15.9-19.6 24.2-58.1 34.1-22.2 5.7-30.9 8.9-39.2 14.2-2.9 1.8-6.2 4.3-7.4 5.6-4.3 4.5-10.8 15.4-12.4 21.1-2.5 8.7-2.6 22.1-.2 34.6 2.8 14.4 13.8 28.8 27.1 35.4 10.9 5.5 18 6.9 33.6 6.9 33.7-.2 53.4-11 59.9-32.9l1.7-5.8 1.1 6c3 16.4 13 26.2 31.5 31.1 12.2 3.2 38.7 1.9 56.7-2.9 13.2-3.4 26.1-10 26.1-13.3 0-1.8 0-1.8-4.3 0-2 .8-6.3 1.5-9.5 1.5-11.4 0-16.7-6.7-17.7-22.6-.4-5-.8-37.2-1-71.5-.2-34.3-.6-63.1-.9-63.9-.3-.8-.7-3.1-1-5.2-1.5-10.2-8.9-23.6-17.4-31.5-15.4-14.3-39-21.1-75.7-21.8-11-.2-22.9 0-26.5.5zm34.6 137.7c-.3 48.3-.8 54.1-5.1 63.8-5 11.1-10.7 13-18.3 6.2-2.4-2.2-5.7-11.9-6.7-19.7-1.1-8.8-.5-40 1-52 1.6-12.3 7.1-23.5 15-30 1.6-1.4 5.5-5 8.5-8.2 3-3.1 5.6-5.6 5.7-5.7.1-.1 0 20.5-.1 45.6z"/></svg>